<svg height="512pt" viewBox="-39 0 512 512.00001" width="512pt" xmlns="http://www.w3.org/2000/svg"><path d="m39.472656 283.714844c-26.453125 0-45.410156-25.527344-37.761718-50.851563l54.066406-179.042969c9.648437-31.957031 39.089844-53.820312 72.46875-53.820312 15.875 0 30.203125 9.515625 36.359375 24.144531l52.511719 124.742188h-107.632813l-32.246094 106.785156c-5.027343 16.648437-20.371093 28.042969-37.765625 28.042969zm0 0" fill="#86bde2"/><path d="m394.757812 283.714844c26.453126 0 45.410157-25.527344 37.761719-50.851563l-54.066406-179.042969c-9.648437-31.957031-39.089844-53.820312-72.46875-53.820312-15.875 0-30.203125 9.515625-36.359375 24.144531l-52.507812 124.742188h107.628906l32.246094 106.785156c5.027343 16.648437 20.371093 28.042969 37.765624 28.042969zm0 0" fill="#95c7ee"/><path d="m360.984375 384.6875c-.015625 65.691406-64.4375 85.109375-143.898437 85.089844-79.460938-.019532-143.875-19.46875-143.859376-85.164063.019532-65.691406 64.457032-182.128906 143.917969-182.109375 79.464844.019532 143.859375 116.488282 143.839844 182.183594zm0 0" fill="#c2dff6"/><path d="m297.121094 460.304688c-94.15625 6.746093-122.929688-65.917969-122.929688-105.84375 0-39.925782 15.027344-98.972657 63.527344-98.722657v-50.625c-6.71875-1.6875-13.585938-2.605469-20.574219-2.609375-79.460937-.019531-143.898437 116.417969-143.917969 182.109375-.015624 65.695313 64.398438 85.144531 143.859376 85.164063 29.621093.007812 57.152343-2.6875 80.035156-9.472656zm0 0" fill="#95c7ee"/><path d="m368.472656 161.761719c0 83.59375-67.761718 94.238281-151.355468 94.238281-83.597657 0-151.359376-10.644531-151.359376-94.238281s67.765626-151.359375 151.359376-151.359375c83.589843 0 151.355468 67.765625 151.355468 151.359375zm0 0" fill="#c2dff6"/><path d="m106.964844 161.761719c0-76.601563 56.910156-139.90625 130.753906-149.957031-6.738281-.917969-13.613281-1.402344-20.601562-1.402344-83.59375 0-151.359376 67.765625-151.359376 151.359375s67.765626 94.238281 151.359376 94.238281c6.988281 0 13.863281-.078125 20.601562-.261719-73.84375-2.03125-130.753906-17.371093-130.753906-93.976562zm0 0" fill="#95c7ee"/><path d="m169.960938 286.90625c0 37.308594-30.242188 67.554688-67.554688 67.554688-37.308594 0-67.554688-30.246094-67.554688-67.554688 0-37.3125 30.246094-67.558594 67.554688-67.558594 37.3125 0 67.554688 30.246094 67.554688 67.558594zm0 0" fill="#d1e7f8"/><path d="m76.058594 286.90625c0-30.125 19.71875-55.632812 46.953125-64.34375-6.5-2.078125-13.417969-3.210938-20.605469-3.210938-37.308594 0-67.554688 30.246094-67.554688 67.554688s30.246094 67.554688 67.554688 67.554688c7.1875 0 14.105469-1.128907 20.605469-3.210938-27.234375-8.710938-46.953125-34.222656-46.953125-64.34375zm0 0" fill="#c2dff6"/><path d="m169.960938 444.445312c0 37.308594-30.242188 67.554688-67.554688 67.554688-37.308594 0-67.554688-30.246094-67.554688-67.554688 0-37.3125 30.246094-67.558593 67.554688-67.558593 37.3125 0 67.554688 30.246093 67.554688 67.558593zm0 0" fill="#d1e7f8"/><path d="m76.058594 444.445312c0-30.125 19.71875-55.632812 46.953125-64.34375-6.5-2.082031-13.417969-3.214843-20.605469-3.214843-37.308594 0-67.554688 30.25-67.554688 67.558593 0 37.308594 30.246094 67.554688 67.554688 67.554688 7.1875 0 14.105469-1.132812 20.605469-3.210938-27.234375-8.714843-46.953125-34.222656-46.953125-64.34375zm0 0" fill="#c2dff6"/><path d="m391.894531 286.90625c0 37.308594-30.246093 67.554688-67.558593 67.554688-37.308594 0-67.554688-30.246094-67.554688-67.554688 0-37.3125 30.246094-67.558594 67.554688-67.558594 37.3125 0 67.558593 30.246094 67.558593 67.558594zm0 0" fill="#d1e7f8"/><path d="m391.894531 444.445312c0 37.308594-30.246093 67.554688-67.558593 67.554688-37.308594 0-67.554688-30.246094-67.554688-67.554688 0-37.3125 30.246094-67.558593 67.554688-67.558593 37.3125 0 67.558593 30.246093 67.558593 67.558593zm0 0" fill="#d1e7f8"/><path d="m282.726562 135.71875c-4.269531 0-7.726562-3.457031-7.726562-7.726562v-11.695313c0-4.269531 3.457031-7.726563 7.726562-7.726563 4.269532 0 7.726563 3.457032 7.726563 7.726563v11.695313c0 4.269531-3.457031 7.726562-7.726563 7.726562zm0 0" fill="#1d1d1f"/><path d="m151.503906 135.71875c-4.265625 0-7.726562-3.457031-7.726562-7.726562v-11.695313c0-4.269531 3.460937-7.726563 7.726562-7.726563s7.726563 3.457032 7.726563 7.726563v11.695313c0 4.269531-3.460938 7.726562-7.726563 7.726562zm0 0" fill="#1d1d1f"/><path d="m288.574219 157.835938h-11.695313c-4.269531 0-7.726562-3.460938-7.726562-7.726563 0-4.269531 3.457031-7.726563 7.726562-7.726563h11.695313c4.269531 0 7.726562 3.457032 7.726562 7.726563 0 4.265625-3.457031 7.726563-7.726562 7.726563zm0 0" fill="#f55"/><path d="m157.351562 157.835938h-11.695312c-4.269531 0-7.726562-3.460938-7.726562-7.726563 0-4.269531 3.457031-7.726563 7.726562-7.726563h11.695312c4.269532 0 7.726563 3.457032 7.726563 7.726563 0 4.265625-3.457031 7.726563-7.726563 7.726563zm0 0" fill="#f55"/><path d="m242.125 187.53125c-9.222656 0-17.964844-3.132812-25.007812-8.894531-7.046876 5.761719-15.789063 8.894531-25.011719 8.894531-4.265625 0-7.726563-3.460938-7.726563-7.726562 0-4.265626 3.460938-7.726563 7.726563-7.726563 6.445312 0 12.507812-2.511719 17.0625-7.066406l2.484375-2.484375c3.015625-3.015625 7.90625-3.015625 10.925781 0l2.484375 2.484375c4.558594 4.558593 10.617188 7.066406 17.0625 7.066406 4.269531 0 7.726562 3.460937 7.726562 7.726563 0 4.265624-3.457031 7.726562-7.726562 7.726562zm0 0" fill="#86bde2"/><path d="m217.117188 175.71875c-4.269532 0-7.726563-3.460938-7.726563-7.726562v-25.804688c0-4.269531 3.457031-7.726562 7.726563-7.726562 4.265624 0 7.722656 3.457031 7.722656 7.726562v25.804688c0 4.265624-3.457032 7.726562-7.722656 7.726562zm0 0" fill="#86bde2"/><path d="m246.785156 112.515625c0 16.386719-13.28125 29.671875-29.667968 29.671875-16.390626 0-29.671876-13.285156-29.671876-29.671875 0-16.382813 13.285157-15.609375 29.671876-15.609375 16.386718 0 29.667968-.773438 29.667968 15.609375zm0 0" fill="#f55"/><path d="m208.050781 112.515625c0-12.761719 8.058594-15.113281 19.367188-15.527344-3.207031-.121093-6.679688-.082031-10.300781-.082031-16.386719 0-29.671876-.773438-29.671876 15.609375 0 16.386719 13.285157 29.671875 29.671876 29.671875 3.621093 0 7.09375-.652344 10.300781-1.839844-11.308594-4.1875-19.367188-15.066406-19.367188-27.832031zm0 0" fill="#e04141"/></svg>